<svg width="40" height="40" viewBox="0 0 40 40" fill="none" xmlns="http://www.w3.org/2000/svg">
<path d="M25.44 13.58L16.86 22.18L13.56 18.88C13.3807 18.6706 13.1601 18.5006 12.9119 18.3805C12.6638 18.2605 12.3936 18.193 12.1181 18.1824C11.8427 18.1718 11.568 18.2182 11.3114 18.3187C11.0547 18.4193 10.8216 18.5718 10.6267 18.7667C10.4318 18.9616 10.2793 19.1947 10.1787 19.4514C10.0782 19.708 10.0318 19.9827 10.0424 20.2581C10.0531 20.5335 10.1205 20.8038 10.2406 21.0519C10.3606 21.3001 10.5306 21.5207 10.74 21.7L15.44 26.42C15.6269 26.6054 15.8485 26.752 16.0922 26.8515C16.3359 26.9511 16.5968 27.0015 16.86 27C17.3847 26.9978 17.8875 26.7895 18.26 26.42L28.26 16.42C28.4475 16.2341 28.5963 16.0129 28.6978 15.7692C28.7993 15.5254 28.8516 15.264 28.8516 15C28.8516 14.736 28.7993 14.4746 28.6978 14.2308C28.5963 13.9871 28.4475 13.7659 28.26 13.58C27.8853 13.2075 27.3784 12.9984 26.85 12.9984C26.3216 12.9984 25.8147 13.2075 25.44 13.58ZM20 0C16.0444 0 12.1776 1.17298 8.8886 3.37061C5.59962 5.56824 3.03617 8.69181 1.52242 12.3463C0.00866568 16.0009 -0.387401 20.0222 0.384303 23.9018C1.15601 27.7814 3.06082 31.3451 5.85787 34.1421C8.65492 36.9392 12.2186 38.844 16.0982 39.6157C19.9778 40.3874 23.9992 39.9913 27.6537 38.4776C31.3082 36.9638 34.4318 34.4004 36.6294 31.1114C38.827 27.8224 40 23.9556 40 20C40 17.3736 39.4827 14.7728 38.4776 12.3463C37.4725 9.91982 35.9993 7.71504 34.1421 5.85786C32.285 4.00069 30.0802 2.5275 27.6537 1.52241C25.2272 0.517315 22.6264 0 20 0V0ZM20 36C16.8355 36 13.7421 35.0616 11.1109 33.3035C8.4797 31.5454 6.42894 29.0466 5.21794 26.1229C4.00693 23.1993 3.69008 19.9823 4.30745 16.8786C4.92481 13.7749 6.44866 10.9239 8.6863 8.68629C10.9239 6.44865 13.7749 4.9248 16.8786 4.30744C19.9823 3.69007 23.1993 4.00693 26.1229 5.21793C29.0466 6.42893 31.5454 8.47969 33.3035 11.1109C35.0616 13.7421 36 16.8355 36 20C36 24.2435 34.3143 28.3131 31.3137 31.3137C28.3131 34.3143 24.2435 36 20 36V36Z" fill="url(#paint0_linear_1053_7063)"/>
<defs>
<linearGradient id="paint0_linear_1053_7063" x1="20" y1="0" x2="20" y2="40" gradientUnits="userSpaceOnUse">
<stop stop-color="#D13750"/>
<stop offset="1" stop-color="#AE2B9E"/>
</linearGradient>
</defs>
</svg>
