<svg width="40" height="40" viewBox="0 0 40 40" fill="none" xmlns="http://www.w3.org/2000/svg">
<path d="M33.183 25.8507H25.633C25.191 25.8507 24.7671 26.0262 24.4545 26.3388C24.1419 26.6514 23.9663 27.0753 23.9663 27.5173C23.9663 27.9593 24.1419 28.3833 24.4545 28.6958C24.7671 29.0084 25.191 29.184 25.633 29.184H29.633C27.7946 31.1052 25.4237 32.4328 22.8249 32.9963C20.2262 33.5598 17.5184 33.3333 15.0493 32.3461C12.5802 31.3588 10.4628 29.6558 8.96899 27.4559C7.4752 25.2561 6.6733 22.6598 6.66634 20.0007C6.66634 19.5586 6.49075 19.1347 6.17819 18.8221C5.86563 18.5096 5.4417 18.334 4.99967 18.334C4.55765 18.334 4.13372 18.5096 3.82116 18.8221C3.5086 19.1347 3.33301 19.5586 3.33301 20.0007C3.34182 23.2553 4.30338 26.4362 6.09901 29.1507C7.89465 31.8652 10.4458 33.9946 13.4376 35.276C16.4294 36.5575 19.7309 36.9349 22.9347 36.3617C26.1385 35.7886 29.1044 34.2899 31.4663 32.0507V35.0007C31.4663 35.4427 31.6419 35.8666 31.9545 36.1792C32.2671 36.4917 32.691 36.6673 33.133 36.6673C33.575 36.6673 33.999 36.4917 34.3115 36.1792C34.6241 35.8666 34.7997 35.4427 34.7997 35.0007V27.5007C34.7956 27.07 34.6249 26.6577 34.3236 26.3501C34.0222 26.0426 33.6134 25.8636 33.183 25.8507ZM19.9997 3.33398C15.727 3.34617 11.6222 4.99884 8.53301 7.95065V5.00065C8.53301 4.55862 8.35741 4.1347 8.04485 3.82214C7.73229 3.50958 7.30837 3.33398 6.86634 3.33398C6.42431 3.33398 6.00039 3.50958 5.68783 3.82214C5.37527 4.1347 5.19967 4.55862 5.19967 5.00065V12.5007C5.19967 12.9427 5.37527 13.3666 5.68783 13.6792C6.00039 13.9917 6.42431 14.1673 6.86634 14.1673H14.3663C14.8084 14.1673 15.2323 13.9917 15.5449 13.6792C15.8574 13.3666 16.033 12.9427 16.033 12.5007C16.033 12.0586 15.8574 11.6347 15.5449 11.3221C15.2323 11.0096 14.8084 10.834 14.3663 10.834H10.3663C12.2038 8.91377 14.5732 7.58648 17.1703 7.0225C19.7675 6.45851 22.474 6.68356 24.9424 7.66876C27.4107 8.65395 29.5283 10.3543 31.0234 12.5517C32.5185 14.749 33.3227 17.343 33.333 20.0007C33.333 20.4427 33.5086 20.8666 33.8212 21.1792C34.1337 21.4917 34.5576 21.6673 34.9997 21.6673C35.4417 21.6673 35.8656 21.4917 36.1782 21.1792C36.4907 20.8666 36.6663 20.4427 36.6663 20.0007C36.6663 17.812 36.2352 15.6447 35.3977 13.6226C34.5601 11.6005 33.3324 9.76318 31.7848 8.21554C30.2371 6.6679 28.3998 5.44024 26.3777 4.60266C24.3556 3.76508 22.1884 3.33398 19.9997 3.33398V3.33398Z" fill="url(#paint0_linear_1033_6456)"/>
<defs>
<linearGradient id="paint0_linear_1033_6456" x1="19.9997" y1="3.33398" x2="19.9997" y2="36.6673" gradientUnits="userSpaceOnUse">
<stop stop-color="#D13750"/>
<stop offset="1" stop-color="#AE2B9E"/>
</linearGradient>
</defs>
</svg>
