<svg width="40" height="40" viewBox="0 0 40 40" fill="none" xmlns="http://www.w3.org/2000/svg">
<path d="M13.8167 22.1507C13.6605 22.3056 13.5365 22.4899 13.4518 22.693C13.3672 22.8961 13.3237 23.114 13.3237 23.334C13.3237 23.554 13.3672 23.7718 13.4518 23.9749C13.5365 24.178 13.6605 24.3624 13.8167 24.5173L18.8167 29.5173C18.9716 29.6735 19.1559 29.7975 19.359 29.8821C19.5621 29.9668 19.78 30.0103 20 30.0103C20.22 30.0103 20.4379 29.9668 20.641 29.8821C20.8441 29.7975 21.0284 29.6735 21.1833 29.5173L26.1833 24.5173C26.4972 24.2035 26.6735 23.7778 26.6735 23.334C26.6735 22.8902 26.4972 22.4645 26.1833 22.1507C25.8695 21.8368 25.4438 21.6605 25 21.6605C24.5562 21.6605 24.1305 21.8368 23.8167 22.1507L21.6667 24.3173V5.00065C21.6667 4.55862 21.4911 4.1347 21.1785 3.82214C20.8659 3.50958 20.442 3.33398 20 3.33398C19.558 3.33398 19.134 3.50958 18.8215 3.82214C18.5089 4.1347 18.3333 4.55862 18.3333 5.00065V24.3173L16.1833 22.1507C16.0284 21.9944 15.8441 21.8704 15.641 21.7858C15.4379 21.7012 15.22 21.6577 15 21.6577C14.78 21.6577 14.5621 21.7012 14.359 21.7858C14.1559 21.8704 13.9716 21.9944 13.8167 22.1507ZM30 15.0007H26.6667C26.2246 15.0007 25.8007 15.1762 25.4882 15.4888C25.1756 15.8014 25 16.2253 25 16.6673C25 17.1093 25.1756 17.5333 25.4882 17.8458C25.8007 18.1584 26.2246 18.334 26.6667 18.334H30C30.442 18.334 30.866 18.5096 31.1785 18.8221C31.4911 19.1347 31.6667 19.5586 31.6667 20.0007V31.6673C31.6667 32.1093 31.4911 32.5333 31.1785 32.8458C30.866 33.1584 30.442 33.334 30 33.334H10C9.55797 33.334 9.13405 33.1584 8.82149 32.8458C8.50893 32.5333 8.33333 32.1093 8.33333 31.6673V20.0007C8.33333 19.5586 8.50893 19.1347 8.82149 18.8221C9.13405 18.5096 9.55797 18.334 10 18.334H13.3333C13.7754 18.334 14.1993 18.1584 14.5118 17.8458C14.8244 17.5333 15 17.1093 15 16.6673C15 16.2253 14.8244 15.8014 14.5118 15.4888C14.1993 15.1762 13.7754 15.0007 13.3333 15.0007H10C8.67392 15.0007 7.40215 15.5274 6.46447 16.4651C5.52678 17.4028 5 18.6746 5 20.0007V31.6673C5 32.9934 5.52678 34.2652 6.46447 35.2029C7.40215 36.1405 8.67392 36.6673 10 36.6673H30C31.3261 36.6673 32.5979 36.1405 33.5355 35.2029C34.4732 34.2652 35 32.9934 35 31.6673V20.0007C35 18.6746 34.4732 17.4028 33.5355 16.4651C32.5979 15.5274 31.3261 15.0007 30 15.0007Z" fill="url(#paint0_linear_1036_8011)"/>
<defs>
<linearGradient id="paint0_linear_1036_8011" x1="20" y1="3.33398" x2="20" y2="36.6673" gradientUnits="userSpaceOnUse">
<stop stop-color="#D13752"/>
<stop offset="1" stop-color="#B02C9C"/>
</linearGradient>
</defs>
</svg>
