<svg width="13" height="13" viewBox="0 0 13 13" fill="none" xmlns="http://www.w3.org/2000/svg">
<path d="M10.875 0.25H2.125C1.62772 0.25 1.15081 0.447544 0.799175 0.799175C0.447544 1.15081 0.25 1.62772 0.25 2.125V2.85625C0.24991 3.11434 0.303104 3.36967 0.40625 3.60625V3.64375C0.49455 3.84436 0.61962 4.02666 0.775 4.18125L4.625 8.00625V12.125C4.62479 12.2312 4.65165 12.3357 4.70304 12.4287C4.75444 12.5216 4.82868 12.6 4.91875 12.6563C5.01821 12.7179 5.13298 12.7504 5.25 12.75C5.34784 12.7494 5.44417 12.7259 5.53125 12.6812L8.03125 11.4312C8.13432 11.3793 8.221 11.2998 8.28167 11.2017C8.34235 11.1035 8.37465 10.9904 8.375 10.875V8.00625L12.2 4.18125C12.3554 4.02666 12.4804 3.84436 12.5687 3.64375V3.60625C12.6805 3.37152 12.7422 3.11611 12.75 2.85625V2.125C12.75 1.62772 12.5525 1.15081 12.2008 0.799175C11.8492 0.447544 11.3723 0.25 10.875 0.25ZM7.30625 7.30625C7.24832 7.36465 7.2025 7.43391 7.17139 7.51006C7.14029 7.58621 7.12452 7.66775 7.125 7.75V10.4875L5.875 11.1125V7.75C5.87548 7.66775 5.85971 7.58621 5.82861 7.51006C5.7975 7.43391 5.75168 7.36465 5.69375 7.30625L2.38125 4H10.6188L7.30625 7.30625ZM11.5 2.75H1.5V2.125C1.5 1.95924 1.56585 1.80027 1.68306 1.68306C1.80027 1.56585 1.95924 1.5 2.125 1.5H10.875C11.0408 1.5 11.1997 1.56585 11.3169 1.68306C11.4342 1.80027 11.5 1.95924 11.5 2.125V2.75Z" fill="#C23270"/>
</svg>
