<svg width="126" height="35" viewBox="0 0 126 35" fill="none" xmlns="http://www.w3.org/2000/svg">
<path d="M4.87598 11.3H8.32598V3.8C8.32598 1.7 6.62598 0.299999 4.17598 0.299999C1.47598 0.299999 0.125977 1.9 0.125977 5.1V30.55C0.125977 32.8 1.67598 34.25 4.12598 34.25C6.67598 34.25 8.27598 32.65 8.27598 29.95V23.25H4.82598V29.85C4.82598 30.5 4.67598 30.7 4.22598 30.7C3.72598 30.7 3.62598 30.5 3.62598 29.6V4.7C3.62598 4.05 3.77598 3.8 4.22598 3.8C4.72598 3.8 4.87598 4 4.87598 4.8V11.3ZM14.4893 0.649997V34H18.0893V20.1H18.3893C18.7893 20.1 19.0393 20.2 19.0393 20.4V20.75V20.9V34H22.6893V21.55C22.7393 19.95 22.2893 19 21.1393 18.4C21.9893 17.95 22.6393 16.55 22.5893 15.35V4.25C22.6393 2 21.0893 0.599998 18.5893 0.649997H14.4893ZM18.0893 4.05H18.3893C18.9893 4.05 19.0893 4.2 19.0893 5.1V15.9C19.0893 16.7 18.9893 16.85 18.4893 16.85C18.3893 16.85 18.2393 16.85 18.0893 16.8V4.05ZM38.9479 0.649997H35.2479L33.7479 13L32.5479 0.649997H28.6979L31.8479 21.55V34H35.5979V21.7L38.9479 0.649997ZM45.1689 0.649997V34H48.8189V20.2H50.0189C52.0689 20.25 53.4189 18.75 53.3689 16.5V3.85C53.4189 1.8 52.0689 0.649997 49.5189 0.649997H45.1689ZM48.8189 3.95H49.1689C49.7189 3.95 49.9189 4.1 49.9189 4.7V15.65C49.9689 16.6 49.8189 16.8 49.0189 16.8H48.8189V3.95ZM67.9229 0.649997H59.4229V4.15H61.8729V34H65.4729V4.15H67.9229V0.649997ZM80.6572 0.649997H75.2572L73.0572 34H76.8072L77.1572 27.55H79.3072L79.7572 34H83.6072L80.6572 0.649997ZM78.0572 8.4L79.1072 24H77.3072L78.0572 8.4ZM96.9912 0.649997H88.4912V4.15H90.9412V34H94.5412V4.15H96.9912V0.649997ZM111.452 0.649997H102.952V4.15H105.402V34H109.002V4.15H111.452V0.649997ZM125.87 4.95C125.87 1.9 124.47 0.299999 121.82 0.299999C118.97 0.299999 117.62 2.05 117.62 5.85V29.45C117.62 32.75 118.92 34.25 121.67 34.25C123.17 34.25 124.47 33.65 125.22 32.65C125.67 32.05 125.87 31.25 125.87 29.8V4.95ZM121.12 5C121.12 4.05 121.27 3.8 121.82 3.8C122.32 3.8 122.47 4.05 122.47 5.05V29.7C122.47 30.55 122.32 30.85 121.82 30.85C121.32 30.85 121.12 30.55 121.12 29.75V5Z" fill="white"/>
</svg>
