<svg width="current" height="current" viewBox="0 0 30 30" fill="white" xmlns="http://www.w3.org/2000/svg">
<path d="M25.2 5.76251C23.8729 4.43502 22.1134 3.62792 20.2415 3.48799C18.3697 3.34806 16.5097 3.88459 15 5.00001C13.4096 3.81706 11.43 3.28065 9.45991 3.49881C7.48982 3.71697 5.67556 4.67348 4.38248 6.17574C3.08939 7.678 2.41354 9.61441 2.49101 11.595C2.56848 13.5756 3.39353 15.4533 4.80001 16.85L14.1125 26.1625C14.2287 26.2797 14.367 26.3727 14.5193 26.4361C14.6716 26.4996 14.835 26.5323 15 26.5323C15.165 26.5323 15.3284 26.4996 15.4807 26.4361C15.6331 26.3727 15.7713 26.2797 15.8875 26.1625L25.2 16.85C25.9283 16.1222 26.5061 15.2579 26.9003 14.3067C27.2945 13.3555 27.4974 12.3359 27.4974 11.3063C27.4974 10.2766 27.2945 9.25702 26.9003 8.3058C26.5061 7.35458 25.9283 6.49036 25.2 5.76251ZM23.4375 15.0875L15 23.5125L6.56251 15.0875C5.81898 14.3409 5.31248 13.3913 5.10655 12.3579C4.90061 11.3246 5.00442 10.2534 5.40495 9.27875C5.80547 8.30414 6.48488 7.4695 7.35794 6.87954C8.231 6.28958 9.25884 5.97056 10.3125 5.96251C11.7202 5.96596 13.0689 6.52793 14.0625 7.52501C14.1787 7.64217 14.317 7.73517 14.4693 7.79863C14.6216 7.86209 14.785 7.89476 14.95 7.89476C15.115 7.89476 15.2784 7.86209 15.4307 7.79863C15.5831 7.73517 15.7213 7.64217 15.8375 7.52501C16.8604 6.63861 18.1819 6.17394 19.5344 6.22504C20.887 6.27614 22.1696 6.8392 23.1227 7.80025C24.0758 8.7613 24.6282 10.0486 24.6681 11.4015C24.708 12.7544 24.2324 14.072 23.3375 15.0875H23.4375Z" fill="current"/>
</svg>
