<svg width="40" height="40" viewBox="0 0 40 40" fill="none" xmlns="http://www.w3.org/2000/svg">
<path d="M16.1833 11.1839L18.3333 9.01722V28.3339C18.3333 28.7759 18.5089 29.1998 18.8215 29.5124C19.134 29.825 19.558 30.0006 20 30.0006C20.442 30.0006 20.8659 29.825 21.1785 29.5124C21.4911 29.1998 21.6667 28.7759 21.6667 28.3339V9.01722L23.8167 11.1839C23.9716 11.3401 24.1559 11.4641 24.359 11.5487C24.5621 11.6333 24.78 11.6769 25 11.6769C25.22 11.6769 25.4379 11.6333 25.641 11.5487C25.8441 11.4641 26.0284 11.3401 26.1833 11.1839C26.3395 11.0289 26.4635 10.8446 26.5482 10.6415C26.6328 10.4384 26.6763 10.2206 26.6763 10.0005C26.6763 9.78053 26.6328 9.56269 26.5482 9.35959C26.4635 9.15649 26.3395 8.97215 26.1833 8.81722L21.1833 3.81722C21.0284 3.661 20.8441 3.53701 20.641 3.4524C20.4379 3.36778 20.22 3.32422 20 3.32422C19.78 3.32422 19.5621 3.36778 19.359 3.4524C19.1559 3.53701 18.9716 3.661 18.8167 3.81722L13.8167 8.81722C13.5028 9.13106 13.3265 9.55671 13.3265 10.0005C13.3265 10.4444 13.5028 10.87 13.8167 11.1839C14.1305 11.4977 14.5562 11.674 15 11.674C15.4438 11.674 15.8695 11.4977 16.1833 11.1839ZM30 15.0006H26.6667C26.2246 15.0006 25.8007 15.1761 25.4882 15.4887C25.1756 15.8013 25 16.2252 25 16.6672C25 17.1092 25.1756 17.5332 25.4882 17.8457C25.8007 18.1583 26.2246 18.3339 26.6667 18.3339H30C30.442 18.3339 30.866 18.5095 31.1785 18.822C31.4911 19.1346 31.6667 19.5585 31.6667 20.0005V31.6672C31.6667 32.1092 31.4911 32.5332 31.1785 32.8457C30.866 33.1583 30.442 33.3339 30 33.3339H10C9.55797 33.3339 9.13405 33.1583 8.82149 32.8457C8.50893 32.5332 8.33333 32.1092 8.33333 31.6672V20.0005C8.33333 19.5585 8.50893 19.1346 8.82149 18.822C9.13405 18.5095 9.55797 18.3339 10 18.3339H13.3333C13.7754 18.3339 14.1993 18.1583 14.5118 17.8457C14.8244 17.5332 15 17.1092 15 16.6672C15 16.2252 14.8244 15.8013 14.5118 15.4887C14.1993 15.1761 13.7754 15.0006 13.3333 15.0006H10C8.67392 15.0006 7.40215 15.5273 6.46447 16.465C5.52678 17.4027 5 18.6745 5 20.0005V31.6672C5 32.9933 5.52678 34.2651 6.46447 35.2028C7.40215 36.1404 8.67392 36.6672 10 36.6672H30C31.3261 36.6672 32.5979 36.1404 33.5355 35.2028C34.4732 34.2651 35 32.9933 35 31.6672V20.0005C35 18.6745 34.4732 17.4027 33.5355 16.465C32.5979 15.5273 31.3261 15.0006 30 15.0006Z" fill="url(#paint0_linear_1033_6949)"/>
<defs>
<linearGradient id="paint0_linear_1033_6949" x1="20" y1="3.32422" x2="20" y2="36.6672" gradientUnits="userSpaceOnUse">
<stop stop-color="#D13750"/>
<stop offset="1" stop-color="#AE2B9E"/>
</linearGradient>
</defs>
</svg>
